{
  "accessors": [
    {
      "bufferView": 2,
      "componentType": 5126,
      "count": 430,
      "max": [
        0.3511977195739746,
        1.4278721809387207,
        0.05134713649749756
      ],
      "min": [
        -0.3488020896911621,
        -1.2921278476715088,
        -0.09079425781965256
      ],
      "type": "VEC3"
    },
    {
      "bufferView": 2,
      "byteOffset": 5160,
      "componentType": 5126,
      "count": 430,
      "max": [
        1.0,
        1.0,
        1.0
      ],
      "min": [
        -1.0,
        -1.0,
        -1.0
      ],
      "type": "VEC3"
    },
    {
      "bufferView": 1,
      "componentType": 5126,
      "count": 430,
      "max": [
        0.7116647362709045,
        1.2039250135421753
      ],
      "min": [
        0.04826277494430542,
        -0.27328822016716003
      ],
      "type": "VEC2"
    },
    {
      "bufferView": 0,
      "componentType": 5125,
      "count": 1071,
      "type": "SCALAR"
    },
    {
      "bufferView": 2,
      "byteOffset": 10320,
      "componentType": 5126,
      "count": 286,
      "max": [
        0.35396987199783325,
        1.4287575483322144,
        0.05134713649749756
      ],
      "min": [
        -0.3515746593475342,
        1.2706061601638794,
        -0.09078516066074371
      ],
      "type": "VEC3"
    },
    {
      "bufferView": 2,
      "byteOffset": 13752,
      "componentType": 5126,
      "count": 286,
      "max": [
        1.0,
        0.9989482164382935,
        1.0
      ],
      "min": [
        -1.0,
        -0.9989446997642517,
        -0.9996382594108582
      ],
      "type": "VEC3"
    },
    {
      "bufferView": 1,
      "byteOffset": 3440,
      "componentType": 5126,
      "count": 286,
      "max": [
        0.9617843627929688,
        1.0
      ],
      "min": [
        0.0,
        0.0
      ],
      "type": "VEC2"
    },
    {
      "bufferView": 0,
      "byteOffset": 4284,
      "componentType": 5125,
      "count": 846,
      "type": "SCALAR"
    },
    {
      "bufferView": 2,
      "byteOffset": 17184,
      "componentType": 5126,
      "count": 1855,
      "max": [
        0.329187273979187,
        0.7713927030563354,
        0.02019234001636505
      ],
      "min": [
        -0.2910889983177185,
        -0.7073402404785156,
        -0.03427747264504433
      ],
      "type": "VEC3"
    },
    {
      "bufferView": 2,
      "byteOffset": 39444,
      "componentType": 5126,
      "count": 1855,
      "max": [
        1.0,
        1.0,
        1.0
      ],
      "min": [
        -1.0,
        -1.0,
        -1.0
      ],
      "type": "VEC3"
    },
    {
      "bufferView": 1,
      "byteOffset": 5728,
      "componentType": 5126,
      "count": 1855,
      "max": [
        0.9675151705741882,
        0.9862788319587708
      ],
      "min": [
        0.022650912404060364,
        -0.006380350328981876
      ],
      "type": "VEC2"
    },
    {
      "bufferView": 0,
      "byteOffset": 7668,
      "componentType": 5125,
      "count": 8862,
      "type": "SCALAR"
    },
    {
      "bufferView": 2,
      "byteOffset": 61704,
      "componentType": 5126,
      "count": 305,
      "max": [
        1.0000001192092896,
        0.9999997019767761,
        0.03314986824989319
      ],
      "min": [
        -0.9999999403953552,
        -1.0000003576278687,
        -0.09685014188289642
      ],
      "type": "VEC3"
    },
    {
      "bufferView": 2,
      "byteOffset": 65364,
      "componentType": 5126,
      "count": 305,
      "max": [
        1.0,
        1.0,
        0.994620144367218
      ],
      "min": [
        -1.0,
        -1.0,
        -1.0
      ],
      "type": "VEC3"
    },
    {
      "bufferView": 1,
      "byteOffset": 20568,
      "componentType": 5126,
      "count": 305,
      "max": [
        1.0671744346618652,
        1.0836966037750244
      ],
      "min": [
        0.0,
        0.0
      ],
      "type": "VEC2"
    },
    {
      "bufferView": 0,
      "byteOffset": 43116,
      "componentType": 5125,
      "count": 1140,
      "type": "SCALAR"
    },
    {
      "bufferView": 2,
      "byteOffset": 69024,
      "componentType": 5126,
      "count": 228,
      "max": [
        1.4507832527160645,
        1.108258605003357,
        1.0
      ],
      "min": [
        -1.481512427330017,
        -1.0248517990112305,
        -1.0
      ],
      "type": "VEC3"
    },
    {
      "bufferView": 2,
      "byteOffset": 71760,
      "componentType": 5126,
      "count": 228,
      "max": [
        1.0,
        1.0,
        1.0
      ],
      "min": [
        -1.0,
        -1.0,
        -1.0
      ],
      "type": "VEC3"
    },
    {
      "bufferView": 1,
      "byteOffset": 23008,
      "componentType": 5126,
      "count": 228,
      "max": [
        0.875,
        0.75
      ],
      "min": [
        0.0,
        0.0
      ],
      "type": "VEC2"
    },
    {
      "bufferView": 0,
      "byteOffset": 47676,
      "componentType": 5125,
      "count": 594,
      "type": "SCALAR"
    },
    {
      "bufferView": 2,
      "byteOffset": 74496,
      "componentType": 5126,
      "count": 576,
      "max": [
        0.6703828573226929,
        -0.16067859530448914,
        -0.12060996145009995
      ],
      "min": [
        -0.6614157557487488,
        -0.23408344388008118,
        -0.7459710836410522
      ],
      "type": "VEC3"
    },
    {
      "bufferView": 2,
      "byteOffset": 81408,
      "componentType": 5126,
      "count": 576,
      "max": [
        1.0,
        1.0,
        1.0
      ],
      "min": [
        -1.0,
        -1.0,
        -1.0
      ],
      "type": "VEC3"
    },
    {
      "bufferView": 1,
      "byteOffset": 24832,
      "componentType": 5126,
      "count": 576,
      "max": [
        0.875,
        1.0
      ],
      "min": [
        0.125,
        0.0
      ],
      "type": "VEC2"
    },
    {
      "bufferView": 0,
      "byteOffset": 50052,
      "componentType": 5125,
      "count": 1056,
      "type": "SCALAR"
    },
    {
      "bufferView": 2,
      "byteOffset": 88320,
      "componentType": 5126,
      "count": 305,
      "max": [
        1.0000001192092896,
        2.9811830520629883,
        0.11962628364562988
      ],
      "min": [
        -0.9999998807907104,
        -3.2453417778015137,
        -0.1196281909942627
      ],
      "type": "VEC3"
    },
    {
      "bufferView": 2,
      "byteOffset": 91980,
      "componentType": 5126,
      "count": 305,
      "max": [
        0.9988997578620911,
        1.0,
        0.9948809742927551
      ],
      "min": [
        -0.9988997578620911,
        -1.0,
        -1.0
      ],
      "type": "VEC3"
    },
    {
      "bufferView": 1,
      "byteOffset": 29440,
      "componentType": 5126,
      "count": 305,
      "max": [
        0.9549517035484314,
        1.0
      ],
      "min": [
        0.0,
        0.0
      ],
      "type": "VEC2"
    },
    {
      "bufferView": 0,
      "byteOffset": 54276,
      "componentType": 5125,
      "count": 1140,
      "type": "SCALAR"
    }
  ],
  "asset": {
    "extras": {
      "author": "Niilo Poutanen (https://sketchfab.com/niilo.poutanen)",
      "license": "CC-BY-4.0 (http://creativecommons.org/licenses/by/4.0/)",
      "source": "https://sketchfab.com/3d-models/apple-tv-remote-38f2339bfc974f1e81fe7b1d2b96330a",
      "title": "Apple TV remote"
    },
    "generator": "Sketchfab-12.65.0",
    "version": "2.0"
  },
  "bufferViews": [
    {
      "buffer": 0,
      "byteLength": 58836,
      "name": "floatBufferViews",
      "target": 34963
    },
    {
      "buffer": 0,
      "byteLength": 31880,
      "byteOffset": 58836,
      "byteStride": 8,
      "name": "floatBufferViews",
      "target": 34962
    },
    {
      "buffer": 0,
      "byteLength": 95640,
      "byteOffset": 90716,
      "byteStride": 12,
      "name": "floatBufferViews",
      "target": 34962
    }
  ],
  "buffers": [
    {
      "byteLength": 186356,
      "uri": "scene.bin"
    }
  ],
  "images": [
    {
      "uri": "textures/Frame_baseColor.png"
    },
    {
      "uri": "textures/Buttons_baseColor.png"
    }
  ],
  "materials": [
    {
      "doubleSided": true,
      "name": "Frame",
      "pbrMetallicRoughness": {
        "baseColorTexture": {
          "index": 0
        },
        "metallicFactor": 0.768182,
        "roughnessFactor": 0.313636
      }
    },
    {
      "doubleSided": true,
      "name": "Black",
      "pbrMetallicRoughness": {
        "baseColorFactor": [
          0.0159948,
          0.0159948,
          0.0159948,
          1.0
        ],
        "metallicFactor": 0.0,
        "roughnessFactor": 0.265957
      }
    },
    {
      "doubleSided": true,
      "name": "Buttons",
      "pbrMetallicRoughness": {
        "baseColorTexture": {
          "index": 1
        },
        "metallicFactor": 0.2266764557,
        "roughnessFactor": 0.646208404
      }
    },
    {
      "doubleSided": true,
      "name": "Metal",
      "pbrMetallicRoughness": {
        "baseColorFactor": [
          0.8,
          0.8,
          0.8,
          1.0
        ],
        "roughnessFactor": 0.124113
      }
    },
    {
      "doubleSided": true,
      "name": "Gold",
      "pbrMetallicRoughness": {
        "baseColorFactor": [
          0.8,
          0.371887,
          0.0504241,
          1.0
        ],
        "metallicFactor": 0.971631,
        "roughnessFactor": 0.358156
      }
    }
  ],
  "meshes": [
    {
      "name": "Frame_Frame_0",
      "primitives": [
        {
          "attributes": {
            "NORMAL": 1,
            "POSITION": 0,
            "TEXCOORD_0": 2
          },
          "indices": 3,
          "material": 0,
          "mode": 4
        }
      ]
    },
    {
      "name": "Frame_Black_0",
      "primitives": [
        {
          "attributes": {
            "NORMAL": 5,
            "POSITION": 4,
            "TEXCOORD_0": 6
          },
          "indices": 7,
          "material": 1,
          "mode": 4
        }
      ]
    },
    {
      "name": "Buttons_Buttons_0",
      "primitives": [
        {
          "attributes": {
            "NORMAL": 9,
            "POSITION": 8,
            "TEXCOORD_0": 10
          },
          "indices": 11,
          "material": 2,
          "mode": 4
        }
      ]
    },
    {
      "name": "Power button_Frame_0",
      "primitives": [
        {
          "attributes": {
            "NORMAL": 13,
            "POSITION": 12,
            "TEXCOORD_0": 14
          },
          "indices": 15,
          "material": 0,
          "mode": 4
        }
      ]
    },
    {
      "name": "Charger port_Metal_0",
      "primitives": [
        {
          "attributes": {
            "NORMAL": 17,
            "POSITION": 16,
            "TEXCOORD_0": 18
          },
          "indices": 19,
          "material": 3,
          "mode": 4
        }
      ]
    },
    {
      "name": "Charger port_Gold_0",
      "primitives": [
        {
          "attributes": {
            "NORMAL": 21,
            "POSITION": 20,
            "TEXCOORD_0": 22
          },
          "indices": 23,
          "material": 4,
          "mode": 4
        }
      ]
    },
    {
      "name": "Voice button_Frame_0",
      "primitives": [
        {
          "attributes": {
            "NORMAL": 25,
            "POSITION": 24,
            "TEXCOORD_0": 26
          },
          "indices": 27,
          "material": 0,
          "mode": 4
        }
      ]
    }
  ],
  "nodes": [
    {
      "children": [
        1
      ],
      "matrix": [
        0.9999966621398926,
        5.736112392082527e-19,
        -0.0025833153631538153,
        0.0,
        -0.0025833153631538153,
        2.2204386377120246e-16,
        -0.9999966621398926,
        0.0,
        0.0,
        1.0,
        2.220446049250313e-16,
        0.0,
        0.001002406352199614,
        -2.3013941011590688e-18,
        0.01036455761641264,
        1.0
      ],
      "name": "Sketchfab_model"
    },
    {
      "children": [
        2
      ],
      "matrix": [
        0.009999999776482582,
        0.0,
        0.0,
        0.0,
        0.0,
        0.0,
        0.009999999776482582,
        0.0,
        0.0,
        -0.009999999776482582,
        0.0,
        0.0,
        0.0,
        0.0,
        0.0,
        1.0
      ],
      "name": "779b003f3363491990f773829d1ef69c.fbx"
    },
    {
      "children": [
        3,
        6,
        8,
        10,
        13
      ],
      "name": "RootNode"
    },
    {
      "children": [
        4,
        5
      ],
      "matrix": [
        100.0,
        0.0,
        0.0,
        0.0,
        0.0,
        99.99999999999972,
        -7.5497901264043296e-06,
        0.0,
        0.0,
        7.5497901264043296e-06,
        99.99999999999972,
        0.0,
        401.0196228027344,
        -23.664697647094727,
        -37.69524002075195,
        1.0
      ],
      "name": "Frame"
    },
    {
      "mesh": 0,
      "name": "Frame_Frame_0"
    },
    {
      "mesh": 1,
      "name": "Frame_Black_0"
    },
    {
      "children": [
        7
      ],
      "matrix": [
        100.0,
        0.0,
        0.0,
        0.0,
        0.0,
        99.99999999999972,
        -7.5497901264043296e-06,
        0.0,
        0.0,
        7.5497901264043296e-06,
        99.99999999999972,
        0.0,
        398.0950927734375,
        15.2434663772583,
        -31.8140869140625,
        1.0
      ],
      "name": "Buttons"
    },
    {
      "mesh": 2,
      "name": "Buttons_Buttons_0"
    },
    {
      "children": [
        9
      ],
      "matrix": [
        6.1912713050842285,
        0.0,
        0.0,
        0.0,
        0.0,
        6.191271305084211,
        -4.6742798969015356e-07,
        0.0,
        0.0,
        4.6742798969015356e-07,
        6.191271305084211,
        0.0,
        421.0287170410156,
        104.32637023925781,
        -32.34011459350586,
        1.0
      ],
      "name": "Power button"
    },
    {
      "mesh": 3,
      "name": "Power button_Frame_0"
    },
    {
      "children": [
        11,
        12
      ],
      "matrix": [
        5.2130889892578125,
        0.0,
        0.0,
        0.0,
        0.0,
        5.213088989257797,
        -3.9357727779165756e-07,
        0.0,
        0.0,
        2.346377960976024e-07,
        3.1078717708587558,
        0.0,
        401.4912109375,
        -147.26974487304688,
        -39.94938278198242,
        1.0
      ],
      "name": "Charger port"
    },
    {
      "mesh": 4,
      "name": "Charger port_Metal_0"
    },
    {
      "mesh": 5,
      "name": "Charger port_Gold_0"
    },
    {
      "children": [
        14
      ],
      "matrix": [
        9.231255707568797e-07,
        3.1373944833725905e-23,
        -4.7410964965819415,
        0.0,
        -2.0723990986698611e-07,
        4.741096496582027,
        -4.03511002551128e-14,
        0.0,
        4.741096496581937,
        2.0723990986699003e-07,
        9.231255707568797e-07,
        0.0,
        436.0931396484375,
        61.6716194152832,
        -39.198402404785156,
        1.0
      ],
      "name": "Voice button"
    },
    {
      "mesh": 6,
      "name": "Voice button_Frame_0"
    }
  ],
  "samplers": [
    {
      "magFilter": 9729,
      "minFilter": 9987,
      "wrapS": 10497,
      "wrapT": 10497
    }
  ],
  "scene": 0,
  "scenes": [
    {
      "name": "Sketchfab_Scene",
      "nodes": [
        0
      ]
    }
  ],
  "textures": [
    {
      "sampler": 0,
      "source": 0
    },
    {
      "sampler": 0,
      "source": 1
    }
  ]
}
