{
  "accessors": [
    {
      "bufferView": 2,
      "componentType": 5126,
      "count": 6125,
      "max": [
        0.4826087951660156,
        0.8337562084197998,
        1.1052379608154297
      ],
      "min": [
        -0.46830371022224426,
        -0.011749565601348877,
        -1.0972685813903809
      ],
      "type": "VEC3"
    },
    {
      "bufferView": 2,
      "byteOffset": 73500,
      "componentType": 5126,
      "count": 6125,
      "max": [
        0.9999499320983887,
        1.0,
        1.0
      ],
      "min": [
        -1.0,
        -1.0,
        -1.0
      ],
      "type": "VEC3"
    },
    {
      "bufferView": 3,
      "componentType": 5126,
      "count": 6125,
      "max": [
        1.0,
        0.9999922513961792,
        1.0,
        1.0
      ],
      "min": [
        -0.9999998807907104,
        -0.9999920725822449,
        -1.0,
        -1.0
      ],
      "type": "VEC4"
    },
    {
      "bufferView": 1,
      "componentType": 5126,
      "count": 6125,
      "max": [
        0.9955368041992188,
        0.9913390874862671
      ],
      "min": [
        0.0039081573486328125,
        0.003909170161932707
      ],
      "type": "VEC2"
    },
    {
      "bufferView": 0,
      "componentType": 5125,
      "count": 31464,
      "type": "SCALAR"
    },
    {
      "bufferView": 2,
      "byteOffset": 147000,
      "componentType": 5126,
      "count": 6125,
      "max": [
        0.4826087951660156,
        0.8337562084197998,
        1.1052379608154297
      ],
      "min": [
        -0.46830371022224426,
        -0.011749565601348877,
        -1.0972685813903809
      ],
      "type": "VEC3"
    },
    {
      "bufferView": 2,
      "byteOffset": 220500,
      "componentType": 5126,
      "count": 6125,
      "max": [
        0.9999499320983887,
        1.0,
        1.0
      ],
      "min": [
        -1.0,
        -1.0,
        -1.0
      ],
      "type": "VEC3"
    },
    {
      "bufferView": 3,
      "byteOffset": 98000,
      "componentType": 5126,
      "count": 6125,
      "max": [
        1.0,
        0.9999922513961792,
        1.0,
        1.0
      ],
      "min": [
        -0.9999998807907104,
        -0.9999920725822449,
        -1.0,
        -1.0
      ],
      "type": "VEC4"
    },
    {
      "bufferView": 1,
      "byteOffset": 49000,
      "componentType": 5126,
      "count": 6125,
      "max": [
        0.9955368041992188,
        0.9913390874862671
      ],
      "min": [
        0.0039081573486328125,
        0.003909170161932707
      ],
      "type": "VEC2"
    },
    {
      "bufferView": 0,
      "byteOffset": 125856,
      "componentType": 5125,
      "count": 31464,
      "type": "SCALAR"
    }
  ],
  "asset": {
    "extras": {
      "author": "Michal Cavrnoch (https://sketchfab.com/MichalCavrnoch)",
      "license": "CC-BY-4.0 (http://creativecommons.org/licenses/by/4.0/)",
      "source": "https://sketchfab.com/3d-models/lowpoly-couch-2-variants-2e26a0cacdb94b5d85537a4377f2f111",
      "title": "Lowpoly couch - 2 variants"
    },
    "generator": "Sketchfab-12.67.0",
    "version": "2.0"
  },
  "bufferViews": [
    {
      "buffer": 0,
      "byteLength": 251712,
      "name": "floatBufferViews",
      "target": 34963
    },
    {
      "buffer": 0,
      "byteLength": 98000,
      "byteOffset": 251712,
      "byteStride": 8,
      "name": "floatBufferViews",
      "target": 34962
    },
    {
      "buffer": 0,
      "byteLength": 294000,
      "byteOffset": 349712,
      "byteStride": 12,
      "name": "floatBufferViews",
      "target": 34962
    },
    {
      "buffer": 0,
      "byteLength": 196000,
      "byteOffset": 643712,
      "byteStride": 16,
      "name": "floatBufferViews",
      "target": 34962
    }
  ],
  "buffers": [
    {
      "byteLength": 839712,
      "uri": "scene.bin"
    }
  ],
  "images": [
    {
      "uri": "textures/leather_baseColor.jpeg"
    },
    {
      "uri": "textures/leather_metallicRoughness.png"
    },
    {
      "uri": "textures/leather_normal.png"
    },
    {
      "uri": "textures/suede_baseColor.jpeg"
    },
    {
      "uri": "textures/suede_metallicRoughness.png"
    },
    {
      "uri": "textures/suede_normal.jpeg"
    }
  ],
  "materials": [
    {
      "doubleSided": true,
      "name": "leather",
      "normalTexture": {
        "index": 2
      },
      "occlusionTexture": {
        "index": 1
      },
      "pbrMetallicRoughness": {
        "baseColorTexture": {
          "index": 0
        },
        "metallicRoughnessTexture": {
          "index": 1
        }
      }
    },
    {
      "doubleSided": true,
      "name": "suede",
      "normalTexture": {
        "index": 5
      },
      "occlusionTexture": {
        "index": 4
      },
      "pbrMetallicRoughness": {
        "baseColorTexture": {
          "index": 3
        },
        "metallicRoughnessTexture": {
          "index": 4
        }
      }
    }
  ],
  "meshes": [
    {
      "name": "Object_0",
      "primitives": [
        {
          "attributes": {
            "NORMAL": 1,
            "POSITION": 0,
            "TANGENT": 2,
            "TEXCOORD_0": 3
          },
          "indices": 4,
          "material": 0,
          "mode": 4
        }
      ]
    },
    {
      "name": "Object_1",
      "primitives": [
        {
          "attributes": {
            "NORMAL": 6,
            "POSITION": 5,
            "TANGENT": 7,
            "TEXCOORD_0": 8
          },
          "indices": 9,
          "material": 1,
          "mode": 4
        }
      ]
    }
  ],
  "nodes": [
    {
      "children": [
        1
      ],
      "matrix": [
        1.0,
        0.0,
        0.0,
        0.0,
        0.0,
        2.220446049250313e-16,
        -1.0,
        0.0,
        0.0,
        1.0,
        2.220446049250313e-16,
        0.0,
        0.0,
        0.0,
        0.0,
        1.0
      ],
      "name": "Sketchfab_model"
    },
    {
      "children": [
        2
      ],
      "name": "root"
    },
    {
      "children": [
        3,
        5
      ],
      "matrix": [
        1.0,
        0.0,
        0.0,
        0.0,
        0.0,
        2.220446049250313e-16,
        1.0,
        0.0,
        0.0,
        -1.0,
        2.220446049250313e-16,
        0.0,
        0.0,
        0.0,
        0.0,
        1.0
      ],
      "name": "GLTF_SceneRootNode"
    },
    {
      "children": [
        4
      ],
      "matrix": [
        0.8535508026365419,
        0.0,
        -0.5210096230574969,
        0.0,
        0.0,
        1.0,
        0.0,
        0.0,
        0.5210096230574969,
        0.0,
        0.8535508026365419,
        0.0,
        0.0,
        0.0,
        -1.399999976158142,
        1.0
      ],
      "name": "couch_leather_0"
    },
    {
      "mesh": 0,
      "name": "Object_4"
    },
    {
      "children": [
        6
      ],
      "matrix": [
        0.8537787877906184,
        0.0,
        0.5206359395189522,
        0.0,
        -0.0,
        1.0,
        0.0,
        0.0,
        -0.5206359395189522,
        -0.0,
        0.8537787877906184,
        0.0,
        0.0,
        0.0,
        1.399999976158142,
        1.0
      ],
      "name": "couch_suede_1"
    },
    {
      "mesh": 1,
      "name": "Object_6"
    }
  ],
  "samplers": [
    {
      "magFilter": 9729,
      "minFilter": 9987,
      "wrapS": 10497,
      "wrapT": 10497
    }
  ],
  "scene": 0,
  "scenes": [
    {
      "name": "Sketchfab_Scene",
      "nodes": [
        0
      ]
    }
  ],
  "textures": [
    {
      "sampler": 0,
      "source": 0
    },
    {
      "sampler": 0,
      "source": 1
    },
    {
      "sampler": 0,
      "source": 2
    },
    {
      "sampler": 0,
      "source": 3
    },
    {
      "sampler": 0,
      "source": 4
    },
    {
      "sampler": 0,
      "source": 5
    }
  ]
}
