{
  "accessors": [
    {
      "bufferView": 2,
      "componentType": 5126,
      "count": 6761,
      "max": [
        1.0008624792099,
        0.9532842636108398,
        0.40665173530578613
      ],
      "min": [
        -1.0010795593261719,
        0.2768901586532593,
        -0.4165111184120178
      ],
      "type": "VEC3"
    },
    {
      "bufferView": 2,
      "byteOffset": 81132,
      "componentType": 5126,
      "count": 6761,
      "max": [
        0.9997849464416504,
        0.9999996423721313,
        0.9999375343322754
      ],
      "min": [
        -0.9994803667068481,
        -0.9999996423721313,
        -0.9999784231185913
      ],
      "type": "VEC3"
    },
    {
      "bufferView": 3,
      "componentType": 5126,
      "count": 6761,
      "max": [
        0.9999998807907104,
        0.9966912865638733,
        0.9997793436050415,
        1.0
      ],
      "min": [
        -0.9999998807907104,
        -0.9987338185310364,
        -0.9990191459655762,
        1.0
      ],
      "type": "VEC4"
    },
    {
      "bufferView": 1,
      "componentType": 5126,
      "count": 6761,
      "max": [
        1.9921468496322632,
        0.9884750247001648
      ],
      "min": [
        1.0092912912368774,
        0.006988955195993185
      ],
      "type": "VEC2"
    },
    {
      "bufferView": 0,
      "componentType": 5125,
      "count": 37482,
      "type": "SCALAR"
    },
    {
      "bufferView": 2,
      "byteOffset": 162264,
      "componentType": 5126,
      "count": 868,
      "max": [
        0.9985479712486267,
        0.9481444954872131,
        0.3764082193374634
      ],
      "min": [
        -0.9903724789619446,
        0.002252363134175539,
        -0.532274603843689
      ],
      "type": "VEC3"
    },
    {
      "bufferView": 2,
      "byteOffset": 172680,
      "componentType": 5126,
      "count": 868,
      "max": [
        0.997245192527771,
        0.9825407862663269,
        0.9921425580978394
      ],
      "min": [
        -0.9976751804351807,
        -0.9974207878112793,
        -0.9809477925300598
      ],
      "type": "VEC3"
    },
    {
      "bufferView": 3,
      "byteOffset": 108176,
      "componentType": 5126,
      "count": 868,
      "max": [
        0.9999959468841553,
        0.9386711120605469,
        0.990001380443573,
        1.0
      ],
      "min": [
        -0.9999992847442627,
        -0.938653290271759,
        -0.9988291263580322,
        -1.0
      ],
      "type": "VEC4"
    },
    {
      "bufferView": 1,
      "byteOffset": 54088,
      "componentType": 5126,
      "count": 868,
      "max": [
        0.9950234889984131,
        0.998046875
      ],
      "min": [
        0.001953125,
        0.001953125
      ],
      "type": "VEC2"
    },
    {
      "bufferView": 0,
      "byteOffset": 149928,
      "componentType": 5125,
      "count": 3414,
      "type": "SCALAR"
    }
  ],
  "asset": {
    "extras": {
      "author": "Uragan27 (https://sketchfab.com/Uragan27)",
      "license": "CC-BY-4.0 (http://creativecommons.org/licenses/by/4.0/)",
      "source": "https://sketchfab.com/3d-models/leather-sofa-00db4b3f0d9c46f9be7a54e58d6c2363",
      "title": "Leather sofa"
    },
    "generator": "Sketchfab-12.65.0",
    "version": "2.0"
  },
  "bufferViews": [
    {
      "buffer": 0,
      "byteLength": 163584,
      "name": "floatBufferViews",
      "target": 34963
    },
    {
      "buffer": 0,
      "byteLength": 61032,
      "byteOffset": 163584,
      "byteStride": 8,
      "name": "floatBufferViews",
      "target": 34962
    },
    {
      "buffer": 0,
      "byteLength": 183096,
      "byteOffset": 224616,
      "byteStride": 12,
      "name": "floatBufferViews",
      "target": 34962
    },
    {
      "buffer": 0,
      "byteLength": 122064,
      "byteOffset": 407712,
      "byteStride": 16,
      "name": "floatBufferViews",
      "target": 34962
    }
  ],
  "buffers": [
    {
      "byteLength": 529776,
      "uri": "scene.bin"
    }
  ],
  "images": [
    {
      "uri": "textures/pillows_baseColor.png"
    },
    {
      "uri": "textures/pillows_metallicRoughness.png"
    },
    {
      "uri": "textures/pillows_normal.png"
    },
    {
      "uri": "textures/Sofa_and_feet_baseColor.png"
    },
    {
      "uri": "textures/Sofa_and_feet_metallicRoughness.png"
    },
    {
      "uri": "textures/Sofa_and_feet_normal.png"
    }
  ],
  "materials": [
    {
      "doubleSided": true,
      "name": "pillows",
      "normalTexture": {
        "index": 2
      },
      "pbrMetallicRoughness": {
        "baseColorTexture": {
          "index": 0
        },
        "metallicFactor": 0.2570773215621181,
        "metallicRoughnessTexture": {
          "index": 1
        }
      }
    },
    {
      "doubleSided": true,
      "name": "Sofa_and_feet",
      "normalTexture": {
        "index": 5
      },
      "occlusionTexture": {
        "index": 4
      },
      "pbrMetallicRoughness": {
        "baseColorTexture": {
          "index": 3
        },
        "metallicRoughnessTexture": {
          "index": 4
        }
      }
    }
  ],
  "meshes": [
    {
      "name": "Object_0",
      "primitives": [
        {
          "attributes": {
            "NORMAL": 1,
            "POSITION": 0,
            "TANGENT": 2,
            "TEXCOORD_0": 3
          },
          "indices": 4,
          "material": 0,
          "mode": 4
        }
      ]
    },
    {
      "name": "Object_1",
      "primitives": [
        {
          "attributes": {
            "NORMAL": 6,
            "POSITION": 5,
            "TANGENT": 7,
            "TEXCOORD_0": 8
          },
          "indices": 9,
          "material": 1,
          "mode": 4
        }
      ]
    }
  ],
  "nodes": [
    {
      "children": [
        1
      ],
      "matrix": [
        1.0,
        0.0,
        0.0,
        0.0,
        0.0,
        3.828568672208042e-16,
        -1.0,
        0.0,
        0.0,
        1.0,
        3.828568672208042e-16,
        0.0,
        0.0,
        -1.1102230246251563e-16,
        -8.326672684688677e-17,
        1.0
      ],
      "name": "Sketchfab_model"
    },
    {
      "children": [
        2
      ],
      "name": "root"
    },
    {
      "children": [
        3
      ],
      "matrix": [
        1.0,
        0.0,
        0.0,
        0.0,
        0.0,
        2.220446049250313e-16,
        1.0,
        0.0,
        0.0,
        -1.0,
        2.220446049250313e-16,
        0.0,
        0.0,
        0.0,
        0.0,
        1.0
      ],
      "name": "GLTF_SceneRootNode"
    },
    {
      "children": [
        4,
        5
      ],
      "name": "Sofa_low_2"
    },
    {
      "mesh": 0,
      "name": "Object_4"
    },
    {
      "mesh": 1,
      "name": "Object_5"
    }
  ],
  "samplers": [
    {
      "magFilter": 9729,
      "minFilter": 9987,
      "wrapS": 10497,
      "wrapT": 10497
    }
  ],
  "scene": 0,
  "scenes": [
    {
      "name": "Sketchfab_Scene",
      "nodes": [
        0
      ]
    }
  ],
  "textures": [
    {
      "sampler": 0,
      "source": 0
    },
    {
      "sampler": 0,
      "source": 1
    },
    {
      "sampler": 0,
      "source": 2
    },
    {
      "sampler": 0,
      "source": 3
    },
    {
      "sampler": 0,
      "source": 4
    },
    {
      "sampler": 0,
      "source": 5
    }
  ]
}
