{
  "accessors": [
    {
      "bufferView": 2,
      "componentType": 5126,
      "count": 8305,
      "max": [
        56.17665100097656,
        0.0,
        56.17665100097656
      ],
      "min": [
        -56.17665100097656,
        -198.55807495117188,
        -56.17665100097656
      ],
      "type": "VEC3"
    },
    {
      "bufferView": 2,
      "byteOffset": 99660,
      "componentType": 5126,
      "count": 8305,
      "max": [
        1.0,
        1.0,
        1.0
      ],
      "min": [
        -1.0,
        -1.0,
        -1.0
      ],
      "type": "VEC3"
    },
    {
      "bufferView": 3,
      "componentType": 5126,
      "count": 8305,
      "max": [
        1.0,
        0.9999810457229614,
        1.0,
        1.0
      ],
      "min": [
        -1.0,
        -0.9998955726623535,
        -1.0,
        1.0
      ],
      "type": "VEC4"
    },
    {
      "bufferView": 1,
      "componentType": 5126,
      "count": 8305,
      "max": [
        1.0,
        1.0
      ],
      "min": [
        -4.656612873077393e-10,
        0.0017679899465292692
      ],
      "type": "VEC2"
    },
    {
      "bufferView": 1,
      "byteOffset": 66440,
      "componentType": 5126,
      "count": 8305,
      "max": [
        1.0,
        1.0
      ],
      "min": [
        -4.656612873077393e-10,
        0.0017679899465292692
      ],
      "type": "VEC2"
    },
    {
      "bufferView": 1,
      "byteOffset": 132880,
      "componentType": 5126,
      "count": 8305,
      "max": [
        1.0,
        1.0
      ],
      "min": [
        -4.656612873077393e-10,
        0.0017679899465292692
      ],
      "type": "VEC2"
    },
    {
      "bufferView": 1,
      "byteOffset": 199320,
      "componentType": 5126,
      "count": 8305,
      "max": [
        1.0,
        1.0
      ],
      "min": [
        -4.656612873077393e-10,
        0.0017679899465292692
      ],
      "type": "VEC2"
    },
    {
      "bufferView": 0,
      "componentType": 5125,
      "count": 28272,
      "type": "SCALAR"
    }
  ],
  "asset": {
    "extras": {
      "author": "Vyacheslav_SD (https://sketchfab.com/Vyacheslav_SD)",
      "license": "CC-BY-4.0 (http://creativecommons.org/licenses/by/4.0/)",
      "source": "https://sketchfab.com/3d-models/chandelier-lowpoly-e7a99b9024904ce3ac60c8831acd0418",
      "title": "Chandelier lowpoly"
    },
    "generator": "Sketchfab-12.67.0",
    "version": "2.0"
  },
  "bufferViews": [
    {
      "buffer": 0,
      "byteLength": 113088,
      "name": "floatBufferViews",
      "target": 34963
    },
    {
      "buffer": 0,
      "byteLength": 265760,
      "byteOffset": 113088,
      "byteStride": 8,
      "name": "floatBufferViews",
      "target": 34962
    },
    {
      "buffer": 0,
      "byteLength": 199320,
      "byteOffset": 378848,
      "byteStride": 12,
      "name": "floatBufferViews",
      "target": 34962
    },
    {
      "buffer": 0,
      "byteLength": 132880,
      "byteOffset": 578168,
      "byteStride": 16,
      "name": "floatBufferViews",
      "target": 34962
    }
  ],
  "buffers": [
    {
      "byteLength": 711048,
      "uri": "scene.bin"
    }
  ],
  "images": [
    {
      "uri": "textures/chandelier_baseColor.png"
    },
    {
      "uri": "textures/chandelier_metallicRoughness.png"
    },
    {
      "uri": "textures/chandelier_normal.png"
    }
  ],
  "materials": [
    {
      "doubleSided": true,
      "name": "chandelier",
      "normalTexture": {
        "index": 2
      },
      "occlusionTexture": {
        "index": 1
      },
      "pbrMetallicRoughness": {
        "baseColorTexture": {
          "index": 0
        },
        "metallicRoughnessTexture": {
          "index": 1
        }
      }
    }
  ],
  "meshes": [
    {
      "name": "chandelier_chandelier_0",
      "primitives": [
        {
          "attributes": {
            "NORMAL": 1,
            "POSITION": 0,
            "TANGENT": 2,
            "TEXCOORD_0": 3,
            "TEXCOORD_1": 4,
            "TEXCOORD_2": 5,
            "TEXCOORD_3": 6
          },
          "indices": 7,
          "material": 0,
          "mode": 4
        }
      ]
    }
  ],
  "nodes": [
    {
      "children": [
        1
      ],
      "matrix": [
        1.0,
        0.0,
        0.0,
        0.0,
        0.0,
        2.220446049250313e-16,
        -1.0,
        0.0,
        0.0,
        1.0,
        2.220446049250313e-16,
        0.0,
        0.0,
        0.0,
        0.0,
        1.0
      ],
      "name": "Sketchfab_model"
    },
    {
      "children": [
        2
      ],
      "matrix": [
        1.0,
        0.0,
        0.0,
        0.0,
        0.0,
        0.0,
        1.0,
        0.0,
        0.0,
        -1.0,
        0.0,
        0.0,
        0.0,
        0.0,
        0.0,
        1.0
      ],
      "name": "4571544eacdb46649cfc7e5c51bc6eb0.fbx"
    },
    {
      "children": [
        3
      ],
      "name": "RootNode"
    },
    {
      "children": [
        4
      ],
      "matrix": [
        1.0,
        0.0,
        0.0,
        0.0,
        0.0,
        1.0,
        0.0,
        0.0,
        0.0,
        0.0,
        1.0,
        0.0,
        0.0,
        198.59970092773438,
        0.0,
        1.0
      ],
      "name": "chandelier"
    },
    {
      "mesh": 0,
      "name": "chandelier_chandelier_0"
    }
  ],
  "samplers": [
    {
      "magFilter": 9729,
      "minFilter": 9987,
      "wrapS": 10497,
      "wrapT": 10497
    }
  ],
  "scene": 0,
  "scenes": [
    {
      "name": "Sketchfab_Scene",
      "nodes": [
        0
      ]
    }
  ],
  "textures": [
    {
      "sampler": 0,
      "source": 0
    },
    {
      "sampler": 0,
      "source": 1
    },
    {
      "sampler": 0,
      "source": 2
    }
  ]
}
